<svg xmlns="http://www.w3.org/2000/svg" xmlns:xlink="http://www.w3.org/1999/xlink" width="80" height="75" viewBox="0 0 80 75">
    <defs>
        <path id="a" d="M0 75h80V0H0z"/>
    </defs>
    <g fill="none" fill-rule="evenodd">
        <path fill="#96C0FF" d="M79 4.344V52H1V4.344C1 2.497 2.485 1 4.32 1h71.36C77.516 1 79 2.497 79 4.344"/>
        <path fill="#FFF" d="M48.421 64L56 74H24l7.579-10z"/>
        <path fill="#EBF4FF" d="M79 51v9.533C79 62.45 77.515 64 75.68 64H4.32C2.485 64 1 62.449 1 60.533V51h78z"/>
        <path fill="#C3D4EF" d="M48.462 64H31.538L29 67h22z"/>
        <mask id="b" fill="#fff">
            <use xlink:href="#a"/>
        </mask>
        <path fill="#B8D4FF" d="M29 52h4V1h-4z" mask="url(#b)"/>
        <path fill="#A63389" d="M29 1v8H1V4.2C1 2.432 2.474 1 4.294 1H29z" mask="url(#b)"/>
        <path fill="#EBF4FF" d="M1 52h28V9H1z" mask="url(#b)"/>
        <path fill="#FFF" d="M54.5 9C63.616 9 71 16.384 71 25.5S63.616 42 54.5 42 38 34.616 38 25.5 45.384 9 54.5 9" mask="url(#b)"/>
        <path fill="#283D54" d="M30 50.833V1.667h45.833c1.379 0 2.5 1.121 2.5 2.5v46.666H30zm-28.333 0h26.666V10H1.667v40.833zm2.5-49.166h24.166v6.666H1.667V4.167c0-1.379 1.121-2.5 2.5-2.5zm50 71.666H25.833L32.083 65h15.834l6.25 8.333zM75.833 0H4.167A4.171 4.171 0 0 0 0 4.167v56.666A4.171 4.171 0 0 0 4.167 65a.833.833 0 1 0 0-1.667 2.503 2.503 0 0 1-2.5-2.5V52.5h76.666v8.333c0 1.379-1.121 2.5-2.5 2.5H9.167a.833.833 0 1 0 0 1.667H30l-6.25 8.333h-2.917a.833.833 0 1 0 0 1.667h38.334a.833.833 0 1 0 0-1.667H56.25L50 65h25.833A4.171 4.171 0 0 0 80 60.833V4.167A4.171 4.171 0 0 0 75.833 0z" mask="url(#b)"/>
        <path fill="#283D54" d="M42.167 59c.46 0 .833-.447.833-1 0-.553-.373-1-.833-1h-3.334c-.46 0-.833.447-.833 1 0 .553.373 1 .833 1h3.334zM10.842 6h14.316c.465 0 .842-.448.842-1s-.377-1-.842-1H10.842C10.377 4 10 4.448 10 5s.377 1 .842 1M4.75 6h1.5C6.664 6 7 5.552 7 5s-.336-1-.75-1h-1.5C4.336 4 4 4.448 4 5s.336 1 .75 1M6.818 16h16.364c.451 0 .818-.448.818-1s-.367-1-.818-1H6.818C6.367 14 6 14.448 6 15s.367 1 .818 1M6.75 20h1.5c.414 0 .75-.448.75-1s-.336-1-.75-1h-1.5c-.414 0-.75.448-.75 1s.336 1 .75 1M12.75 20h1.5c.414 0 .75-.448.75-1s-.336-1-.75-1h-1.5c-.414 0-.75.448-.75 1s.336 1 .75 1M6.75 24h1.5c.414 0 .75-.448.75-1s-.336-1-.75-1h-1.5c-.414 0-.75.448-.75 1s.336 1 .75 1M12.846 24h9.308c.467 0 .846-.448.846-1s-.38-1-.846-1h-9.308c-.467 0-.846.448-.846 1s.38 1 .846 1M23.182 27H6.818C6.367 27 6 27.448 6 28s.367 1 .818 1h16.364c.451 0 .818-.448.818-1s-.367-1-.818-1M6.75 34h1.5c.414 0 .75-.448.75-1s-.336-1-.75-1h-1.5c-.414 0-.75.448-.75 1s.336 1 .75 1M12.75 34h1.5c.414 0 .75-.448.75-1s-.336-1-.75-1h-1.5c-.414 0-.75.448-.75 1s.336 1 .75 1M6.75 38h1.5c.414 0 .75-.448.75-1s-.336-1-.75-1h-1.5c-.414 0-.75.448-.75 1s.336 1 .75 1M12.846 38h9.308c.467 0 .846-.448.846-1s-.38-1-.846-1h-9.308c-.467 0-.846.448-.846 1s.38 1 .846 1M23.182 41H6.818C6.367 41 6 41.447 6 42c0 .553.367 1 .818 1h16.364c.451 0 .818-.447.818-1 0-.553-.367-1-.818-1M8.25 45h-1.5c-.414 0-.75.447-.75 1 0 .553.336 1 .75 1h1.5c.414 0 .75-.447.75-1 0-.553-.336-1-.75-1M14.25 45h-1.5c-.414 0-.75.447-.75 1 0 .553.336 1 .75 1h1.5c.414 0 .75-.447.75-1 0-.553-.336-1-.75-1M67.56 15.108a.834.834 0 0 0-.192 1.164c1.94 2.699 2.965 5.89 2.965 9.228 0 8.73-7.103 15.833-15.833 15.833S38.667 34.231 38.667 25.5c0-8.73 7.102-15.833 15.833-15.833 1.735 0 3.44.278 5.067.827a.837.837 0 0 0 1.056-.523.835.835 0 0 0-.523-1.057A17.49 17.49 0 0 0 54.5 8C44.85 8 37 15.85 37 25.5S44.85 43 54.5 43 72 35.15 72 25.5c0-3.69-1.133-7.217-3.278-10.2a.832.832 0 0 0-1.163-.192" mask="url(#b)"/>
        <path fill="#283D54" d="M48.797 21.3a.905.905 0 0 0-1.232-.107l-5.25 4.167A.818.818 0 0 0 42 26c0 .247.116.482.315.64l5.25 4.167c.164.13.362.193.56.193a.89.89 0 0 0 .672-.3.806.806 0 0 0-.112-1.173L44.242 26l4.443-3.527a.806.806 0 0 0 .112-1.173M59.203 21.3a.806.806 0 0 0 .112 1.173L63.758 26l-4.443 3.527a.806.806 0 0 0-.112 1.173.89.89 0 0 0 .673.3.897.897 0 0 0 .559-.193l5.25-4.167A.818.818 0 0 0 66 26a.818.818 0 0 0-.315-.64l-5.25-4.167a.906.906 0 0 0-1.232.107M55.361 19.612l-3.333 12.352A.823.823 0 0 0 52.834 33a.833.833 0 0 0 .805-.611l3.333-12.353a.823.823 0 0 0-.591-1.008.832.832 0 0 0-1.02.584" mask="url(#b)"/>
    </g>
</svg>
