<svg xmlns="http://www.w3.org/2000/svg" xmlns:xlink="http://www.w3.org/1999/xlink" width="65" height="65" viewBox="0 0 65 65">
    <defs>
        <path id="a" d="M0 0h65v65H0z"/>
    </defs>
    <g fill="none" fill-rule="evenodd">
        <path fill="#2B3B73" d="M0 0h65v65H0z"/>
        <mask id="b" fill="#fff">
            <use xlink:href="#a"/>
        </mask>
        <path fill="#FFF" d="M12.83 26.239l4.822-4.48a4.555 4.555 0 0 0 0-6.72l-3.945-3.665c-1.972-1.832-5.259-1.832-7.231 0L.559 16.872-9.52 26.24a4.555 4.555 0 0 0 0 6.72l37.253 34.616c.876.814 2.191 1.425 3.725 1.425H56L12.612 28.072c-.22-.611-.22-1.426.219-1.833zM52.17 39.761l-4.822 4.48a4.555 4.555 0 0 0 0 6.72l3.945 3.665c1.972 1.832 5.259 1.832 7.231 0l5.917-5.498 10.08-9.367a4.555 4.555 0 0 0 0-6.72L37.268-1.575C36.392-2.389 35.077-3 33.543-3H9l43.388 40.928c.22.611.22 1.426-.219 1.833z" mask="url(#b)"/>
    </g>
</svg>
