<svg xmlns="http://www.w3.org/2000/svg" xmlns:xlink="http://www.w3.org/1999/xlink" width="75" height="73" viewBox="0 0 75 73">
    <defs>
        <path id="a" d="M0 75h75V0H0z"/>
    </defs>
    <g fill="none" fill-rule="evenodd" transform="translate(0 -1)">
        <path fill="#96C0FF" d="M24 63v8.571c0 .786-.675 1.429-1.5 1.429h-3C18 73 18 71.571 18 71.571V63h6zM52 64.41c0 .874-.675 1.59-1.5 1.59h-6c-.825 0-1.5-.716-1.5-1.59V32.59c0-.875.675-1.591 1.5-1.591h6c.825 0 1.5.716 1.5 1.59v31.82z"/>
        <path fill="#A63389" d="M31 39.667v21.777C31 62.3 30.285 63 29.412 63H10.353c-.874 0-1.588-.7-1.588-1.556v-6.222L4 53.667v-9.334l4.765-1.555v-6.222c0-.856.714-1.556 1.588-1.556h19.059c.873 0 1.588.7 1.588 1.556v3.11z"/>
        <path fill="#96C0FF" d="M41 55.222V63l-10-4.667V39.667L41 35z"/>
        <mask id="b" fill="#fff">
            <use xlink:href="#a"/>
        </mask>
        <path fill="#F1F2F2" d="M17 54h9v-6h-9z" mask="url(#b)"/>
        <path fill="#EBF4FF" d="M74 43.657c0 2.561-2.11 4.629-4.725 4.629H67.7L59.825 56v-7.714H51.95V32.857c0-.848-.709-1.543-1.575-1.543h-6.3c-.866 0-1.575.695-1.575 1.543V34.4l-11.025 4.629v-3.086c0-.849-.709-1.543-1.575-1.543H11V6.629C11 4.067 13.11 2 15.725 2h53.55C71.889 2 74 4.067 74 6.629v37.028z" mask="url(#b)"/>
        <path stroke="#283D54" stroke-linecap="round" stroke-linejoin="round" stroke-width="2" d="M31 58.045l11.308 4.773v1.591c0 .875.727 1.591 1.615 1.591h6.462c.888 0 1.615-.716 1.615-1.59V32.59c0-.874-.727-1.59-1.615-1.59h-6.462c-.888 0-1.615.716-1.615 1.59v1.592L31 38.955M41.5 35v21M31 39.667v-3.111C31 35.7 30.285 35 29.412 35h-19.06c-.873 0-1.587.7-1.587 1.556v6.222L4 44.333v9.334l4.765 1.555v6.222c0 .856.714 1.556 1.588 1.556H29.412c.873 0 1.588-.7 1.588-1.556V39.667zM18 63v8.571S18 73 19.5 73h3c.825 0 1.5-.643 1.5-1.429V63M17 41.5h9" mask="url(#b)"/>
        <path stroke="#283D54" stroke-linecap="round" stroke-linejoin="round" stroke-width="2" d="M26 54v-6h-9v6M1 47.5h3M11 28.229v-21.6C11 4.067 13.11 2 15.725 2h53.55C71.889 2 74 4.067 74 6.629v37.028c0 2.561-2.11 4.629-4.725 4.629H67.7L59.825 56v-7.714M19 9.5h47M19 16.5h47" mask="url(#b)"/>
        <path stroke="#474C54" stroke-linecap="round" stroke-linejoin="round" stroke-width="2" d="M50 25.5h4M62 25.5h4" mask="url(#b)"/>
    </g>
</svg>
