<svg xmlns="http://www.w3.org/2000/svg" xmlns:xlink="http://www.w3.org/1999/xlink" width="319" height="64" viewBox="0 0 319 64">
    <defs>
        <path id="a" d="M.671.247h13.235V17.32H.671z"/>
        <path id="c" d="M0 63.84h318.681V.935H0z"/>
    </defs>
    <g fill="none" fill-rule="evenodd">
        <path fill="#2D3C74" d="M96.217 23.116L88 39.511h-4.044l-8.173-16.395V42H69V12h9.174L86 28.482 93.87 12H103v30h-6.783z"/>
        <g>
            <path fill="#2D3C74" d="M131.023 27.192c0-2.691-.872-4.988-2.616-6.89-1.746-1.9-3.891-2.85-6.435-2.85-2.547 0-4.69.95-6.436 2.85-1.744 1.902-2.616 4.199-2.616 6.89 0 2.693.872 4.983 2.616 6.868 1.746 1.885 3.89 2.827 6.436 2.827 2.544 0 4.689-.942 6.435-2.827 1.744-1.885 2.616-4.175 2.616-6.868m2.313 11.1c-3.083 2.98-6.879 4.472-11.387 4.472-4.507 0-8.303-1.492-11.386-4.472-3.083-2.98-4.624-6.687-4.624-11.122 0-4.433 1.54-8.141 4.624-11.121 3.083-2.98 6.879-4.47 11.386-4.47 4.508 0 8.304 1.49 11.387 4.47 3.081 2.98 4.624 6.688 4.624 11.121 0 4.435-1.543 8.141-4.624 11.122M163.784 27.192c0-2.691-.872-4.988-2.616-6.89-1.746-1.9-3.89-2.85-6.436-2.85-2.545 0-4.69.95-6.434 2.85-1.746 1.902-2.619 4.199-2.619 6.89 0 2.693.873 4.983 2.619 6.868 1.744 1.885 3.889 2.827 6.434 2.827 2.545 0 4.69-.942 6.436-2.827 1.744-1.885 2.616-4.175 2.616-6.868m2.313 11.1c-3.085 2.98-6.879 4.472-11.387 4.472-4.507 0-8.303-1.492-11.386-4.472-3.083-2.98-4.623-6.687-4.623-11.122 0-4.433 1.54-8.141 4.623-11.121 3.083-2.98 6.88-4.47 11.386-4.47 4.508 0 8.302 1.49 11.387 4.47 3.082 2.98 4.622 6.688 4.622 11.121 0 4.435-1.54 8.141-4.622 11.122M189.741 25.875c.844-.748 1.264-1.936 1.264-3.564 0-1.626-.436-2.741-1.308-3.348-.872-.605-2.4-.905-4.581-.905h-5.103v8.939h4.972c2.326 0 3.911-.373 4.756-1.122m8.2-3.586c0 4.839-1.933 7.962-5.8 9.373l7.72 10.799h-8.375l-6.762-9.631h-4.71v9.631h-6.808V12.268h11.562c4.739 0 8.12.793 10.142 2.376 2.02 1.586 3.032 4.133 3.032 7.645M215.653 36.5c3.345 0 6.078-1.31 8.2-3.93l4.365 4.447c-3.463 3.86-7.542 5.788-12.237 5.788-4.697 0-8.566-1.468-11.605-4.405-3.039-2.937-4.56-6.644-4.56-11.121 0-4.478 1.552-8.214 4.647-11.21 3.098-2.993 6.885-4.49 11.365-4.49 5.002 0 9.19 1.887 12.563 5.657l-4.23 4.75c-2.153-2.647-4.83-3.973-8.028-3.973-2.56 0-4.747.829-6.565 2.485-1.819 1.655-2.726 3.886-2.726 6.693 0 2.807.857 5.062 2.574 6.76 1.713 1.7 3.795 2.549 6.237 2.549"/>
            <path fill="#2D3C74" d="M252.995 27.192c0-2.691-.872-4.988-2.616-6.89-1.746-1.9-3.89-2.85-6.434-2.85-2.547 0-4.692.95-6.436 2.85-1.745 1.902-2.617 4.199-2.617 6.89 0 2.693.872 4.983 2.617 6.868 1.744 1.885 3.889 2.827 6.436 2.827 2.543 0 4.688-.942 6.434-2.827 1.744-1.885 2.616-4.175 2.616-6.868m2.313 11.1c-3.083 2.98-6.879 4.472-11.387 4.472-4.507 0-8.303-1.492-11.386-4.472-3.083-2.98-4.624-6.687-4.624-11.122 0-4.433 1.541-8.141 4.624-11.121 3.083-2.98 6.88-4.47 11.386-4.47 4.508 0 8.304 1.49 11.387 4.47 3.081 2.98 4.624 6.688 4.624 11.121 0 4.435-1.543 8.141-4.624 11.122M280.718 34.168c1.672-1.554 2.51-3.815 2.51-6.782 0-2.964-.838-5.247-2.51-6.845-1.673-1.599-4.238-2.399-7.7-2.399h-3.794V36.5h4.319c3.112 0 5.502-.778 7.175-2.332m4.994-17.947c2.91 2.635 4.364 6.3 4.364 10.993 0 4.693-1.418 8.409-4.254 11.144-2.835 2.736-7.162 4.102-12.978 4.102h-10.426V12.27h10.775c5.438 0 9.61 1.316 12.52 3.95M314.68 12.269v6.004H299.5v6.22h13.654v5.743H299.5V36.5h15.661v5.96h-22.467V12.27z"/>
            <g transform="translate(246.037 46.52)">
                <mask id="b" fill="#fff">
                    <use xlink:href="#a"/>
                </mask>
                <path fill="#A6338A" d="M5.763 3.92c-.358.29-.536.677-.536 1.156 0 .48.217.862.655 1.145.436.284 1.446.619 3.027 1.005 1.583.385 2.812.963 3.686 1.734.875.77 1.311 1.898 1.311 3.377 0 1.48-.56 2.68-1.681 3.6-1.12.922-2.595 1.382-4.424 1.382-2.638 0-5.016-.969-7.13-2.904l2.218-2.692c1.797 1.558 3.458 2.339 4.985 2.339.682 0 1.219-.146 1.609-.439a1.4 1.4 0 0 0 .585-1.179c0-.497-.207-.89-.62-1.18-.415-.293-1.233-.589-2.456-.886-1.941-.457-3.36-1.052-4.257-1.783-.9-.732-1.35-1.881-1.35-3.447 0-1.567.569-2.775 1.706-3.625C4.228.673 5.648.247 7.348.247c1.113 0 2.226.19 3.34.568 1.113.377 2.082.913 2.908 1.605L11.712 5.11c-1.447-1.085-2.94-1.628-4.483-1.628-.619 0-1.11.146-1.466.437" mask="url(#b)"/>
            </g>
            <path fill="#A6338A" d="M275.278 55.304c0-1.472-.477-2.728-1.43-3.767-.954-1.038-2.129-1.557-3.518-1.557-1.392 0-2.564.52-3.518 1.557-.955 1.039-1.432 2.295-1.432 3.767 0 1.471.477 2.723 1.432 3.755.954 1.03 2.126 1.545 3.518 1.545 1.39 0 2.564-.516 3.517-1.545.954-1.032 1.43-2.284 1.43-3.755m1.265 6.068c-1.687 1.63-3.76 2.443-6.224 2.443-2.466 0-4.54-.814-6.224-2.443-1.687-1.63-2.53-3.656-2.53-6.08s.843-4.45 2.53-6.08c1.683-1.63 3.758-2.444 6.224-2.444 2.464 0 4.537.815 6.224 2.444 1.685 1.63 2.528 3.656 2.528 6.08s-.843 4.45-2.528 6.08M293.068 47.147v3.234h-7.727v3.565h7.346v3.235h-7.346v6.47h-3.72V47.147z"/>
            <mask id="d" fill="#fff">
                <use xlink:href="#c"/>
            </mask>
            <path fill="#A6338A" d="M295.62 63.651h3.72V47.147h-3.72zM309.69 52.057l-2.1 4.793h4.174l-2.075-4.793zm5.032 11.593l-1.55-3.564h-6.988l-1.55 3.564h-3.958l7.201-16.504h3.6l7.204 16.504h-3.959z" mask="url(#d)"/>
            <path fill="#2D3C74" d="M16.055 23.094l3.348-3.317a3.422 3.422 0 0 0 0-4.873l-2.64-2.614a3.506 3.506 0 0 0-4.923 0l-3.984 3.943-6.83 6.762a3.444 3.444 0 0 0 0 4.907l25.448 25.194a3.398 3.398 0 0 0 2.482.98l16.705.017L16.055 24.35a.881.881 0 0 1 0-1.256" mask="url(#d)"/>
            <path fill="#A6338A" d="M42.804 31.935l-3.35 3.316a3.425 3.425 0 0 0 0 4.874l2.642 2.616a3.509 3.509 0 0 0 4.923 0l3.984-3.945 6.83-6.762a3.444 3.444 0 0 0 0-4.907L32.386 1.932a3.398 3.398 0 0 0-2.483-.98L13.198.937 42.804 30.68a.879.879 0 0 1 0 1.255" mask="url(#d)"/>
        </g>
    </g>
</svg>
