<svg xmlns="http://www.w3.org/2000/svg" xmlns:xlink="http://www.w3.org/1999/xlink" width="19" height="27" viewBox="0 0 19 27">
    <defs>
        <path id="a" d="M0 28h19V0H0z"/>
    </defs>
    <g fill="none" fill-rule="evenodd">
        <path fill="#EBF4FF" d="M18 22v1.714A2.276 2.276 0 0 1 15.733 26H3.267A2.276 2.276 0 0 1 1 23.714V22h17zM18 3.286V5H1V3.286A2.276 2.276 0 0 1 3.267 1h12.466A2.276 2.276 0 0 1 18 3.286"/>
        <mask id="b" fill="#fff">
            <use xlink:href="#a"/>
        </mask>
        <path fill="#96C0FF" d="M1 21h17V4H1z" mask="url(#b)"/>
        <path stroke="#283D54" stroke-linecap="round" stroke-linejoin="round" d="M3.833 4.804H18v-1.63C18 1.974 16.985 1 15.733 1H3.267C2.015 1 1 1.973 1 3.174v20.652C1 25.026 2.015 26 3.267 26h12.466C16.985 26 18 25.027 18 23.826V5.891" mask="url(#b)"/>
        <path stroke="#474C54" stroke-linecap="round" stroke-linejoin="round" stroke-width="1.1" d="M3 21.5h11" mask="url(#b)"/>
    </g>
</svg>
