<svg xmlns="http://www.w3.org/2000/svg" width="66" height="78" viewBox="0 0 66 78">
    <g fill="none" fill-rule="evenodd">
        <path fill="#96C0FF" d="M64 23.284H49.223c-3.628 0-6.567-2.93-6.567-6.55V2L64 23.284z"/>
        <path fill="#EBF4FF" d="M64 41.13v19.566a6.522 6.522 0 0 1-6.526 6.521h-19.58L26.475 77v-9.783H8.526S2 67.217 2 60.696V8.52A6.522 6.522 0 0 1 8.526 2H42.79V16.673a6.522 6.522 0 0 0 6.527 6.523H64V41.13z"/>
        <path fill="#96C0FF" d="M33.508 11.773v19.98c0 .467-.175.867-.463 1.183l-5.926-6.177-3.194-3.33-9.583 9.99h-1.597c-.879 0-1.597-.75-1.597-1.665v-19.98c0-.917.718-1.666 1.597-1.666H31.91c.878 0 1.597.75 1.597 1.665"/>
        <path fill="#A63389" d="M26.373 26.662l6.119 6.267c-.314.304-.71.49-1.171.49H13.18l9.895-10.135 3.298 3.378z"/>
        <path stroke="#474C54" stroke-linecap="round" stroke-linejoin="round" stroke-width="2.027" d="M64 24.297H49.223c-3.628 0-6.567-3.11-6.567-6.95v-5.212"/>
        <path stroke="#474C54" stroke-linecap="round" stroke-linejoin="round" stroke-width="2.027" d="M2 43.554V8.65C2 4.975 4.92 2 8.526 2H42.79L64 23.608v18.284M64 60.415c0 3.665-2.92 6.634-6.526 6.634h-19.58L26.475 77v-9.95H8.526S2 67.05 2 60.414v-1.658"/>
        <path stroke="#474C54" stroke-linecap="round" stroke-linejoin="round" stroke-width="2.027" d="M27.12 26.759l-3.195-3.33-9.583 9.99h-1.597c-.882 0-1.597-.746-1.597-1.665v-19.98c0-.92.715-1.666 1.597-1.666H31.91c.882 0 1.597.746 1.597 1.665v19.98c0 .92-.715 1.666-1.597 1.666h-9.583"/>
        <path fill="#A4B0C0" d="M61.459 47.608c1.525 0 1.525 1.52 1.525 1.52v3.04c0 1.521-1.525 1.521-1.525 1.521h-4.574v-6.08h4.574z"/>
        <path fill="#A63389" d="M55.869 47.608v6.081H11.96l-4.879-3.04 4.879-3.04z"/>
        <path stroke="#474C54" stroke-linecap="round" stroke-linejoin="round" stroke-width="2.027" d="M55.869 47.608H11.96l-4.879 3.04 4.879 3.041h43.908M56.885 53.69h4.574s1.525 0 1.525-1.521v-3.04s0-1.52-1.525-1.52h-4.574v6.08zM8.098 50.649H3.016M11.148 40.514h32.524M49.77 40.514h6.099M39.607 31.392h16.262"/>
    </g>
</svg>
