<svg xmlns="http://www.w3.org/2000/svg" width="79" height="79" viewBox="0 0 79 79">
    <g fill="none" fill-rule="evenodd">
        <path fill="#EBF4FF" d="M3.607 57.714A1.612 1.612 0 0 1 2 56.107V40.036c0-.884.723-1.607 1.607-1.607H19.68c.884 0 1.607.723 1.607 1.607v16.071c0 .884-.724 1.607-1.607 1.607H3.607zM31.464 57.714a1.612 1.612 0 0 1-1.607-1.607V40.036c0-.884.723-1.607 1.607-1.607h16.072c.884 0 1.607.723 1.607 1.607v16.071c0 .884-.723 1.607-1.607 1.607H31.464zM59.321 57.714a1.612 1.612 0 0 1-1.607-1.607V40.036c0-.884.724-1.607 1.607-1.607h16.072c.884 0 1.607.723 1.607 1.607v16.071c0 .884-.723 1.607-1.607 1.607H59.32z"/>
        <path stroke="#283D54" stroke-linecap="round" stroke-linejoin="round" stroke-width="2.143" d="M3.607 57.714A1.612 1.612 0 0 1 2 56.107V40.036c0-.884.723-1.607 1.607-1.607H19.68c.884 0 1.607.723 1.607 1.607v16.071c0 .884-.724 1.607-1.607 1.607h-8.036"/>
        <path stroke="#474C54" stroke-linecap="round" stroke-linejoin="round" stroke-width="2.143" d="M14.857 47L4.143 57.714"/>
        <path stroke="#283D54" stroke-linecap="round" stroke-linejoin="round" stroke-width="2.143" d="M42.714 46.464l-11.25 11.25c-.888 0-1.607-.72-1.607-1.607V40.036c0-.887.719-1.607 1.607-1.607h16.072c.888 0 1.607.72 1.607 1.607v16.071c0 .887-.719 1.607-1.607 1.607H39.5M70.571 46.464l-11.25 11.25c-.888 0-1.607-.72-1.607-1.607V40.036c0-.887.719-1.607 1.607-1.607h16.072c.889 0 1.607.72 1.607 1.607v16.071c0 .887-.718 1.607-1.607 1.607h-8.036"/>
        <path fill="#96C0FF" d="M77 65.75v9.643c0 .884-.734 1.607-1.63 1.607H3.63C2.734 77 2 76.277 2 75.393V65.75c0-.884.734-1.607 1.63-1.607h71.74c.896 0 1.63.723 1.63 1.607"/>
        <path stroke="#283D54" stroke-linecap="round" stroke-linejoin="round" stroke-width="2.143" d="M2 75.393C2 76.277 2.734 77 3.63 77h71.74c.896 0 1.63-.723 1.63-1.607V65.75c0-.884-.734-1.607-1.63-1.607H3.63c-.896 0-1.63.723-1.63 1.607v9.643z"/>
        <path fill="#96C0FF" d="M77 5.214v22.5c0 1.768-1.467 3.215-3.26 3.215h-6.523L60.696 24.5l-9.783-9.643-6.522 6.429-6.521-6.429L21.565 30.93H5.261C3.467 30.929 2 29.482 2 27.714v-22.5C2 3.446 3.467 2 5.26 2h68.48C75.532 2 77 3.446 77 5.214"/>
        <path fill="#A63389" d="M68.429 30.929h-13.47l-5.05-4.822-5.052-4.821 6.735-6.429L61.694 24.5zM53.429 30.929H21.286l16.071-16.072 6.429 6.429 4.821 4.821z"/>
        <path stroke="#283D54" stroke-linecap="round" stroke-linejoin="round" stroke-width="2.143" d="M31.348 30.929h42.391c1.794 0 3.261-1.447 3.261-3.215v-22.5C77 3.446 75.533 2 73.74 2H5.26C3.468 2 2 3.446 2 5.214v22.5c0 1.768 1.467 3.215 3.26 3.215h16.305L37.87 14.857l6.521 6.429 4.892 4.821"/>
        <path stroke="#474C54" stroke-linecap="round" stroke-linejoin="round" stroke-width="2.143" d="M44.857 22.357l6.429-6.428 9.643 9.642"/>
        <path fill="#FFF" d="M18.607 10.571a4.815 4.815 0 0 1 4.822 4.822 4.815 4.815 0 0 1-4.822 4.821 4.815 4.815 0 0 1-4.821-4.821 4.815 4.815 0 0 1 4.821-4.822"/>
        <path stroke="#474C54" stroke-linecap="round" stroke-linejoin="round" stroke-width="2.143" d="M23.429 15.393a4.815 4.815 0 0 1-4.822 4.821 4.815 4.815 0 0 1-4.821-4.821 4.815 4.815 0 0 1 4.821-4.822 4.815 4.815 0 0 1 4.822 4.822z"/>
    </g>
</svg>
